<?xml version="1.0" encoding="utf-8"?>
<!-- Generator: Adobe Illustrator 24.1.2, SVG Export Plug-In . SVG Version: 6.00 Build 0)  -->
<svg version="1.1" id="Layer_1" xmlns="http://www.w3.org/2000/svg" xmlns:xlink="http://www.w3.org/1999/xlink" x="0px" y="0px"
	 viewBox="0 0 100 100" style="enable-background:new 0 0 100 100;" xml:space="preserve">
<style type="text/css">
	.st0{display:none;fill:#C1272D;}
	.st1{display:none;}
	.st2{display:inline;fill:#1C1C1C;}
	.st3{display:inline;fill:#C1272D;}
	.st4{fill:#474F59;}
</style>
<path class="st0" d="M93.2,69.7c-1,1-2.2,1.9-3.5,2.4c-0.5-0.4-1.1-0.8-1.5-1.1c-2.1-1.8-4.2-3.5-6.3-5.3c-1.2-1-2.4,1.4-1.2,2.4
	c1.5,1.3,3.1,2.6,4.6,3.9c0.9,0.8,1.9,1.6,2.8,2.3c0.2,0.2,0.5,0.4,0.7,0.6c-0.5-0.5-0.3,2.4-0.3,3c-0.1,4-3,6.7-6,7.3
	c-0.3-6.9-5.9-11.2-11.7-11c-1.5,0.1-1.5,2.8,0,2.8c5.5-0.2,10.5,4.1,9.1,11.4c-1,5.7-6,6.9-10.2,6c0.2-2.9-0.8-5.8-2.9-8.2
	c-1.1-1.2-2.6,0.8-1.6,2c1.7,2,2.5,4.2,2.1,6.5c-0.1,0.2-0.2,0.5-0.2,0.7c0,0,0,0,0,0c-0.3,0.9-0.7,1.8-1.3,2.6
	c-0.1,0.1-0.1,0.2-0.2,0.4c-1.7,1.2-4.3,1.3-5.8,1.2c-3.3-0.3-5.5-3.4-5.7-7.3c-0.1-1.9-0.1-3.7,0-5.6c2.4,0.1,5.1,0,6.9-1.8
	c2-2.1,2.5-5.3,2.6-8.3c0-1.8-2.3-1.8-2.3,0c0,2.1-0.3,4.4-1.6,6c-1.2,1.6-3.7,1.5-5.6,1.4c0-0.3,0-0.7,0-1c0-5,0-10,0-14.9
	c2.6,0,5.2,0,7.8,0c1.5,0,1.5-2.8,0-2.8c-2.6,0-5.2,0-7.8,0c0-3.4,0-6.8,0-10.2c4.4,0.1,10.9,0.9,15.5-1.1c0,0.1,0.1,0.3,0.1,0.4
	c1.8,3.7,1.5,7.3-1.5,9.7c-1.2,1,0,3.3,1.2,2.3c4.1-3.3,4.7-8.5,2.3-13.5c0-0.1-0.1-0.1-0.1-0.2c1.9-1.5,3.2-3.9,3.3-7.6
	c0.1-1.8-2.2-1.8-2.3,0c-0.1,4.5-2.9,6.6-6.4,7.1c-3.9,0.6-8.1,0.2-12.1,0.1c0-6.6,0-13.1,0-19.7c0-3,0-6.1,0-9.1
	c1.8,0.1,3.6,0.4,5,1.9c1.5,1.6,2.3,3.9,2.2,6.3c0,1.8,2.3,1.8,2.3,0c0-2.9-0.9-5.6-2.5-7.8c-1.8-2.5-4.4-3.1-7-3.2
	c0-2.2,0-4.5,0-6.7c0-0.5,0-1,0-1.5c2.5,2.8,6,2.9,9.4,0.8c1.3-0.8,0.2-3.2-1.1-2.4c-3.1,2-6.1,1.5-8-2.3c0,0,0-0.1-0.1-0.1
	c0.1-0.9,0.3-1.8,0.5-2.7c1.9-6.9,9.5-5,13-1.2c0,0,0.1,0.1,0.1,0.1c0,4.9,0.1,9.8,0,14.6c-0.2,6.9,4.2,11.5,9.7,11.6
	c1.5,0,1.5-2.7,0-2.8c-4.7-0.1-7.4-3.8-7.4-9.3c0-4.9,0-9.7,0-14.6c3.4-1.1,7-0.9,9.1,3.1c0.8,1.5,1.2,3.4,1.4,5.2
	c-0.1,0.1-0.2,0.2-0.3,0.3c-1.9,2.1-3.8,4.1-5.6,6.2c-1.1,1.2,0.5,3.1,1.6,1.9c1.4-1.6,2.9-3.2,4.3-4.7c0.6-0.7,1.3-1.4,1.9-2.1
	c0,0,0,0,0,0c-0.3,0.4,0.7,0.3,1.1,0.3c0.9,0.1,1.8,0.4,2.6,0.8c3,1.7,3.1,6.8,2.3,10.1c-0.2,0.9,0.4,1.6,1.1,1.7
	c3.6,0.6,5.9,2.9,5.8,7.4c0,1.7-0.7,4.4-1,5.4c0,0.1,0,0.1-0.1,0.2c0,0,0,0-0.1,0c-5.7,1.4-9.1,8.4-7.6,15.2
	c0.4,1.7,2.7,1.2,2.3-0.5c-1.2-5.2,1.1-10.8,5.7-12c0.3-0.1,0.5-0.2,0.6-0.4c2.3,2.8,3.4,6.2,2,10.1c-0.6,1.7-1.6,3.2-2.7,4.4
	c-0.4,0.4-0.4,1.1-0.2,1.7C95.9,62.6,96,66.6,93.2,69.7z"/>
<path class="st0" d="M5.8,58.6C6,58,6,57.3,5.6,56.9c-1.1-1.2-2.1-2.8-2.7-4.4c-1.4-3.9-0.3-7.3,2-10.1c0.1,0.2,0.4,0.4,0.6,0.4
	c4.6,1.1,6.9,6.8,5.7,12c-0.4,1.7,1.9,2.2,2.3,0.5c1.6-6.7-1.9-13.7-7.6-15.2c0,0,0,0-0.1,0c0-0.1,0-0.1-0.1-0.2c-0.4-1-1-3.7-1-5.4
	c-0.1-4.5,2.2-6.8,5.8-7.4c0.7-0.1,1.3-0.8,1.1-1.7C10.9,22,11,17,14,15.3c0.8-0.5,1.7-0.8,2.6-0.8c0.4,0,1.4,0.1,1.1-0.3
	c0,0,0,0,0,0c0.6,0.7,1.3,1.4,1.9,2.1c1.4,1.6,2.9,3.2,4.3,4.7c1.1,1.2,2.7-0.7,1.6-1.9c-1.9-2.1-3.8-4.1-5.6-6.2
	c-0.1-0.1-0.2-0.2-0.3-0.3c0.1-1.8,0.6-3.7,1.4-5.2c2-4,5.6-4.1,9.1-3.1c0,4.9,0,9.7,0,14.6c0,5.5-2.7,9.2-7.4,9.3
	c-1.5,0-1.5,2.8,0,2.8c5.5-0.1,9.9-4.7,9.7-11.6c-0.1-4.9,0-9.8,0-14.6c0,0,0.1-0.1,0.1-0.1c3.5-3.8,11-5.7,13,1.2
	c0.2,0.9,0.4,1.8,0.5,2.7c0,0,0,0.1-0.1,0.1c-1.9,3.8-4.9,4.3-8,2.3c-1.3-0.8-2.4,1.6-1.1,2.4c3.4,2.2,6.9,2,9.4-0.8
	c0,0.5,0,1,0,1.5c0,2.2,0,4.5,0,6.7c-2.6,0.1-5.2,0.7-7,3.2c-1.6,2.2-2.6,4.8-2.5,7.8c0,1.8,2.3,1.8,2.3,0c0-2.3,0.8-4.7,2.2-6.3
	c1.5-1.5,3.2-1.9,5-1.9c0,3,0,6.1,0,9.1c0,6.6,0,13.1,0,19.7c-4,0.1-8.2,0.5-12.1-0.1c-3.4-0.5-6.2-2.6-6.4-7.1
	c-0.1-1.8-2.3-1.8-2.3,0c0.1,3.7,1.4,6.1,3.3,7.6c0,0.1-0.1,0.1-0.1,0.2c-2.4,5-1.9,10.2,2.3,13.5c1.2,1,2.5-1.4,1.2-2.3
	c-3.1-2.4-3.3-6.1-1.5-9.7c0.1-0.1,0.1-0.3,0.1-0.4c4.6,2.1,11.1,1.3,15.5,1.1c0,3.4,0,6.8,0,10.2c-2.6,0-5.2,0-7.8,0
	c-1.5,0-1.5,2.8,0,2.8c2.6,0,5.2,0,7.8,0c0,5,0,10,0,14.9c0,0.3,0,0.7,0,1c-1.9,0.1-4.4,0.1-5.6-1.4c-1.3-1.6-1.5-3.9-1.6-6
	c0-1.8-2.3-1.8-2.3,0c0,3,0.6,6.3,2.6,8.3c1.8,1.8,4.6,1.9,6.9,1.8c0,1.9,0,3.7,0,5.6c-0.2,3.8-2.4,7-5.7,7.3
	c-1.5,0.1-4.2,0-5.8-1.2c0-0.1-0.1-0.2-0.2-0.4c-0.6-0.9-1.1-1.7-1.3-2.6c0,0,0,0,0,0c0-0.3-0.1-0.5-0.2-0.7
	c-0.4-2.3,0.4-4.5,2.1-6.5c1.1-1.2-0.5-3.3-1.6-2c-2.1,2.4-3.1,5.3-2.9,8.2c-4.2,1-9.2-0.2-10.2-6c-1.3-7.3,3.6-11.6,9.1-11.4
	c1.5,0.1,1.5-2.7,0-2.8c-5.8-0.2-11.4,4.1-11.7,11c-3.1-0.6-5.9-3.3-6-7.3c0-0.6,0.3-3.4-0.3-3c0.2-0.2,0.5-0.4,0.7-0.6
	c0.9-0.8,1.9-1.6,2.8-2.3c1.5-1.3,3.1-2.6,4.6-3.9c1.2-1,0.1-3.4-1.2-2.4c-2.1,1.8-4.2,3.5-6.3,5.3c-0.4,0.3-1,0.7-1.5,1.1
	c-1.3-0.5-2.5-1.3-3.5-2.4C4.2,66.6,4.3,62.6,5.8,58.6z"/>
<g class="st1">
	<polygon class="st2" points="84.6,16.7 71,22.4 77.7,27.6 58.3,50.7 39,41.2 1.7,86.2 10.5,93.5 42,55.3 61.2,64.7 86.7,34.5 
		94.4,40.3 96.3,25.7 98.2,11 	"/>
	<rect x="38.4" y="60.6" class="st3" width="9.4" height="32.3"/>
	<rect x="22.6" y="81.1" class="st2" width="9.4" height="11.8"/>
	<rect x="56" y="66.6" class="st2" width="9.4" height="26.3"/>
	<rect x="73.3" y="51.8" class="st3" width="9.4" height="41.1"/>
</g>
<path class="st0" d="M57.3,29.5c-0.4,0.8-0.9,1.5-1.5,2.1c-0.7,0.6-1.5,1.1-2.4,1.4c-0.9,0.4-2,0.6-3.1,0.7l-0.4,3.8
	c0,0.1,0,0.2-0.1,0.2c0,0.1-0.1,0.1-0.2,0.2c-0.1,0-0.3,0.1-0.5,0.1c-0.2,0-0.4,0-0.7,0c-0.4,0-0.7,0-0.9-0.1
	c-0.2,0-0.4-0.1-0.5-0.2c-0.1-0.1-0.2-0.2-0.3-0.3c0-0.1-0.1-0.2,0-0.4l0.4-3.6c-0.5-0.1-1-0.2-1.4-0.3c-0.5-0.1-0.9-0.2-1.2-0.4
	c-0.4-0.1-0.7-0.3-1-0.4c-0.3-0.1-0.5-0.3-0.6-0.4c-0.1-0.1-0.2-0.3-0.3-0.6c-0.1-0.3-0.1-0.7-0.1-1.2c0-0.4,0-0.7,0-1
	c0-0.3,0.1-0.5,0.1-0.6c0.1-0.1,0.1-0.2,0.2-0.3c0.1-0.1,0.2-0.1,0.3-0.1c0.2,0,0.4,0.1,0.7,0.3c0.3,0.2,0.7,0.4,1.1,0.6
	c0.5,0.2,1,0.4,1.7,0.6c0.7,0.2,1.4,0.3,2.3,0.3c1.4,0,2.4-0.3,3.1-0.8c0.7-0.5,1-1.2,1-2.1c0-0.6-0.1-1-0.4-1.4
	c-0.3-0.4-0.7-0.7-1.2-1c-0.5-0.3-1-0.5-1.6-0.7c-0.6-0.2-1.2-0.5-1.9-0.7c-0.6-0.2-1.3-0.5-1.9-0.9c-0.6-0.3-1.2-0.7-1.6-1.2
	c-0.5-0.5-0.9-1.1-1.2-1.8c-0.3-0.7-0.4-1.5-0.4-2.5c0-0.9,0.1-1.7,0.4-2.4c0.3-0.7,0.7-1.4,1.3-1.9c0.6-0.5,1.2-1,2.1-1.3
	c0.8-0.3,1.7-0.6,2.8-0.7l0.4-3.6c0-0.1,0-0.2,0.1-0.2c0-0.1,0.1-0.1,0.2-0.2c0.1-0.1,0.3-0.1,0.5-0.1c0.2,0,0.4,0,0.7,0
	c0.4,0,0.7,0,0.9,0.1c0.2,0,0.4,0.1,0.6,0.2c0.1,0.1,0.2,0.2,0.2,0.3c0,0.1,0.1,0.2,0.1,0.4l-0.4,3.4c0.3,0,0.7,0.1,1,0.2
	c0.4,0.1,0.7,0.2,1,0.3c0.3,0.1,0.6,0.2,0.9,0.4c0.3,0.1,0.4,0.2,0.5,0.3c0.1,0.1,0.2,0.2,0.2,0.3c0.1,0.1,0.1,0.2,0.1,0.4
	c0,0.1,0.1,0.3,0.1,0.5c0,0.2,0,0.4,0,0.7c0,0.4,0,0.7,0,0.9c0,0.2-0.1,0.4-0.1,0.5c0,0.1-0.1,0.2-0.2,0.2c-0.1,0-0.1,0.1-0.2,0.1
	c-0.2,0-0.4-0.1-0.7-0.2c-0.3-0.2-0.7-0.3-1.1-0.5c-0.4-0.2-0.9-0.3-1.5-0.5c-0.6-0.2-1.2-0.2-1.9-0.2c-0.6,0-1.1,0.1-1.6,0.2
	c-0.4,0.1-0.8,0.3-1.1,0.5c-0.3,0.2-0.5,0.5-0.6,0.8c-0.1,0.3-0.2,0.6-0.2,1c0,0.6,0.1,1,0.4,1.4c0.3,0.4,0.7,0.7,1.2,1
	c0.5,0.3,1,0.5,1.7,0.7c0.6,0.2,1.3,0.5,1.9,0.7c0.6,0.2,1.3,0.5,1.9,0.9c0.6,0.3,1.2,0.7,1.7,1.2c0.5,0.5,0.9,1.1,1.2,1.7
	c0.3,0.7,0.4,1.5,0.4,2.5C57.8,27.8,57.7,28.7,57.3,29.5z"/>
<path class="st4" d="M44.2,97c-7.8,0-15.6-1.8-19.2-5.4c-0.5-0.5-0.7-1.2-0.5-1.8c0.1-0.4,2.5-11.1-1.9-20.7
	c-0.8-1.8-2.1-3.4-3.5-5.1c-4.2-5.1-9.4-11.5-9.4-29.9c0,0,0-0.2,0-0.2C9.8,2.9,40.9,2,44.4,2c0.2,0,0.4,0,0.6,0c0.4,0,1,0,1.7,0
	c7.1,0,30.5,2.2,33.9,31.2c0,0.2,0.6,3.4,7.9,14.8c0.1,0.1,1.3,1.9,0.8,4c-0.2,1-0.8,2.3-2.7,3.4c-2.2,1.3-4.6,2.3-6,3
	c0.3,2.9,0.7,9.6,0,13.5c-0.9,4.8-8.1,5.8-14,5.8c-0.8,0-1.2,0-1.2,0c-0.1,0-0.1,0-0.2,0c-0.5,0-0.8,0.1-1,0.1v12.5
	c0,0.5-0.2,1-0.6,1.3C59.9,95.2,52,97,44.2,97z M28.4,89.5c6.4,4.9,25.6,4.9,31.8-0.1V77.5c0-1.7,1.3-3.7,4.8-3.7c0.3,0,0.5,0,0.5,0
	c0,0,0.4,0,1,0c6.4,0,10-1.4,10.2-2.7c0.9-4.5-0.1-13.7-0.1-13.8c-0.1-0.9,0.4-1.7,1.2-2c0,0,3.8-1.5,6.8-3.3
	c0.4-0.2,0.8-0.5,0.9-0.9c0.1-0.4-0.2-0.9-0.3-1c-7.9-12.3-8.5-16-8.5-16.6C73.7,7.8,52.9,5.8,46.7,5.8c-0.6,0-1.1,0-1.6,0
	c-0.3,0-0.5,0-0.7,0c-5.1,0-30.8,1.3-30.9,28c0,0,0,0.1,0,0.2c0,17,4.7,22.8,8.5,27.5c1.5,1.9,3,3.7,4,6
	C29.9,76,29.3,85.4,28.4,89.5z"/>
<g>
	<path class="st4" d="M44.2,97c-7.8,0-15.6-1.8-19.2-5.4c-0.5-0.5-0.7-1.2-0.5-1.8c0.1-0.4,2.5-11.1-1.9-20.7
		c-0.8-1.8-2.1-3.4-3.5-5.1c-4.2-5.1-9.4-11.5-9.4-29.9c0,0,0-0.2,0-0.2C9.8,2.9,40.9,2,44.4,2c0.2,0,0.4,0,0.6,0c0.4,0,1,0,1.7,0
		c7.1,0,30.5,2.2,33.9,31.2c0,0.2,0.6,3.4,7.9,14.8c0.1,0.1,1.3,1.9,0.8,4c-0.2,1-0.8,2.3-2.7,3.4c-2.2,1.3-4.6,2.3-6,3
		c0.3,2.9,0.7,9.6,0,13.5c-0.9,4.8-8.1,5.8-14,5.8c-0.8,0-1.2,0-1.2,0c-0.1,0-0.1,0-0.2,0c-0.5,0-0.8,0.1-1,0.1v12.5
		c0,0.5-0.2,1-0.6,1.3C59.9,95.2,52,97,44.2,97z M28.4,89.5c6.4,4.9,25.6,4.9,31.8-0.1V77.5c0-1.7,1.3-3.7,4.8-3.7
		c0.3,0,0.5,0,0.5,0c0,0,0.4,0,1,0c6.4,0,10-1.4,10.2-2.7c0.9-4.5-0.1-13.7-0.1-13.8c-0.1-0.9,0.4-1.7,1.2-2c0,0,3.8-1.5,6.8-3.3
		c0.4-0.2,0.8-0.5,0.9-0.9c0.1-0.4-0.2-0.9-0.3-1c-7.9-12.3-8.5-16-8.5-16.6C73.7,7.8,52.9,5.8,46.7,5.8c-0.6,0-1.1,0-1.6,0
		c-0.3,0-0.5,0-0.7,0c-5.1,0-30.8,1.3-30.9,28c0,0,0,0.1,0,0.2c0,17,4.7,22.8,8.5,27.5c1.5,1.9,3,3.7,4,6
		C29.9,76,29.3,85.4,28.4,89.5z"/>
	<g>
		<path class="st4" d="M29.4,49.1c-0.7-0.8-1.9-0.9-2.7-0.2c-0.8,0.7-0.9,1.9-0.2,2.7l0.1,0.1c0.4,0.4,0.9,0.7,1.5,0.7
			c0.4,0,0.9-0.2,1.2-0.5C30,51.2,30.1,50,29.4,49.1L29.4,49.1z"/>
		<path class="st4" d="M34.8,53.7c0,0-0.1-0.1-0.1-0.1c-0.9-0.5-2.1-0.2-2.6,0.7c-0.5,0.9-0.2,2.1,0.7,2.6l0.1,0
			c0.3,0.2,0.6,0.3,1,0.3c0.7,0,1.3-0.3,1.6-0.9C36,55.4,35.7,54.2,34.8,53.7z"/>
		<path class="st4" d="M26.5,21L26.5,21c-0.7,0.9-0.6,2,0.3,2.7c0.3,0.3,0.8,0.4,1.2,0.4c0.6,0,1.2-0.2,1.5-0.7
			c0.7-0.8,0.5-2-0.3-2.7C28.4,20.1,27.2,20.2,26.5,21z"/>
		<path class="st4" d="M25.9,43.1c-0.3-1-1.4-1.5-2.4-1.2c-1,0.4-1.5,1.4-1.2,2.4c0,0,0.1,0.1,0.1,0.1c0.3,0.8,1,1.2,1.7,1.2
			c0.2,0,0.5,0,0.7-0.1C25.8,45.3,26.3,44.1,25.9,43.1z"/>
		<path class="st4" d="M24.7,35.7c-0.4-1-1.4-1.5-2.4-1.2c-1,0.4-1.5,1.4-1.2,2.4c0,0,0,0.1,0,0.1c0.3,0.8,1,1.2,1.7,1.2
			c0.2,0,0.5,0,0.7-0.1C24.5,37.8,25,36.7,24.7,35.7z"/>
		<path class="st4" d="M63.6,29.5c0.3,0.8,1,1.3,1.8,1.3c0.2,0,0.4,0,0.7-0.1c1-0.4,1.5-1.5,1.1-2.5l0-0.1c-0.4-1-1.4-1.4-2.4-1.1
			C63.7,27.4,63.2,28.5,63.6,29.5z"/>
		<path class="st4" d="M32.9,15.7c0,0-0.1,0.1-0.1,0.1c-0.9,0.5-1.2,1.7-0.6,2.6c0.4,0.6,1,0.9,1.7,0.9c0.3,0,0.7-0.1,1-0.3
			c0.9-0.5,1.2-1.7,0.7-2.6C35,15.4,33.8,15.1,32.9,15.7z"/>
		<path class="st4" d="M23.5,30.6c0.2,0.1,0.4,0.1,0.6,0.1c0.8,0,1.5-0.5,1.8-1.3c0.4-1-0.1-2.1-1.1-2.5c-1-0.4-2.1,0.1-2.5,1.1
			c0,0,0,0.1,0,0.1C22,29.2,22.5,30.2,23.5,30.6z"/>
		<path class="st4" d="M60.1,23.5c0.4,0.4,0.9,0.7,1.5,0.7c0.4,0,0.9-0.1,1.2-0.4c0.8-0.7,0.9-1.9,0.2-2.7L63,20.9
			c-0.7-0.8-1.9-0.9-2.7-0.2C59.5,21.4,59.4,22.6,60.1,23.5C60.1,23.4,60.1,23.5,60.1,23.5z"/>
		<path class="st4" d="M66,42.1c-1-0.4-2.1,0.2-2.5,1.2c-0.4,1,0.1,2.1,1.1,2.5c0.2,0.1,0.4,0.1,0.7,0.1c0.8,0,1.5-0.5,1.8-1.2
			c0,0,0-0.1,0.1-0.1C67.5,43.5,67,42.5,66,42.1z"/>
		<path class="st4" d="M56.7,15.7L56.7,15.7c-1-0.6-2.2-0.3-2.7,0.6c-0.5,0.9-0.2,2.1,0.7,2.6c0,0,0.1,0.1,0.1,0.1
			c0.3,0.2,0.6,0.2,0.9,0.2c0.7,0,1.3-0.4,1.7-1C58,17.4,57.6,16.2,56.7,15.7z"/>
		<path class="st4" d="M60,49.3c-0.7,0.8-0.6,2,0.2,2.7c0.4,0.3,0.8,0.5,1.2,0.5c0.5,0,1.1-0.2,1.5-0.7l0.1-0.1
			c0.7-0.8,0.5-2-0.3-2.6C62,48.3,60.7,48.5,60,49.3z"/>
		<path class="st4" d="M66.7,34.3c-1.1,0-1.9,0.9-1.9,1.9v0.2c0,1.1,0.8,1.9,1.9,1.9c0,0,0,0,0,0c1,0,1.9-0.8,1.9-1.9
			c0,0,0-0.1,0-0.2v-0.1C68.6,35.2,67.7,34.3,66.7,34.3z"/>
		<path class="st4" d="M54.7,53.7c-0.9,0.5-1.2,1.7-0.7,2.6c0.4,0.6,1,0.9,1.7,0.9c0.3,0,0.7-0.1,1-0.3c0,0,0.1,0,0.1,0
			c0.9-0.5,1.2-1.7,0.6-2.6C56.8,53.5,55.6,53.2,54.7,53.7z"/>
		<path class="st4" d="M40.7,12.8c0,0-0.2,0-0.2,0c-1,0.2-1.7,1.1-1.5,2.2c0.2,0.9,1,1.6,1.9,1.6c0.1,0,0.2,0,0.3,0
			c1-0.2,1.8-1.1,1.6-2.2C42.8,13.4,41.8,12.7,40.7,12.8z"/>
		<path class="st4" d="M41.3,56c0,0-0.2,0-0.2,0c-1-0.2-2,0.6-2.2,1.6c-0.2,1,0.6,2,1.6,2.2l0.1,0c0.1,0,0.2,0,0.3,0
			c0.9,0,1.7-0.6,1.9-1.6C43.1,57.2,42.4,56.2,41.3,56z"/>
		<path class="st4" d="M48.2,56.1c-1.1,0.2-1.8,1.1-1.6,2.2c0.2,0.9,1,1.6,1.9,1.6c0.1,0,0.2,0,0.3,0c0,0,0.2,0,0.2,0
			c1-0.2,1.6-1.1,1.5-2.2C50.2,56.6,49.2,55.9,48.2,56.1z"/>
		<path class="st4" d="M48.9,12.9c0,0-0.1,0-0.1,0c-1-0.2-2,0.5-2.1,1.6c-0.2,1,0.6,2,1.6,2.2c0.1,0,0.2,0,0.3,0
			c0.9,0,1.7-0.6,1.9-1.6C50.7,14,50,13,48.9,12.9z"/>
	</g>
	<path class="st4" d="M44.8,52.2c-8.7,0-15.9-7.1-15.9-15.9c0-8.7,7.1-15.9,15.9-15.9c8.8,0,15.9,7.1,15.9,15.9
		C60.6,45.1,53.5,52.2,44.8,52.2z M44.8,24.3c-6.6,0-12,5.4-12,12c0,6.6,5.4,12,12,12c6.6,0,12-5.4,12-12
		C56.8,29.7,51.4,24.3,44.8,24.3z"/>
	<path class="st4" d="M43.7,44.5c-0.5,0-0.9-0.2-1.3-0.5l-5.1-4.8c-0.8-0.7-0.8-1.9-0.1-2.7c0.7-0.8,1.9-0.8,2.7-0.1l3.3,3.1
		l4.7-9.3c0.5-0.9,1.6-1.3,2.6-0.9c0.9,0.5,1.3,1.6,0.9,2.6l-5.8,11.7c-0.3,0.5-0.8,0.9-1.4,1C43.9,44.5,43.8,44.5,43.7,44.5z"/>
</g>
</svg>
