<?xml version="1.0" encoding="utf-8"?>
<!-- Generator: Adobe Illustrator 24.1.2, SVG Export Plug-In . SVG Version: 6.00 Build 0)  -->
<svg version="1.1" id="Layer_1" xmlns="http://www.w3.org/2000/svg" xmlns:xlink="http://www.w3.org/1999/xlink" x="0px" y="0px"
	 viewBox="0 0 100 100" style="enable-background:new 0 0 100 100;" xml:space="preserve">
<style type="text/css">
	.st0{fill:#C1272D;}
</style>
<path class="st0" d="M93.2,69.7c-1,1-2.2,1.9-3.5,2.4c-0.5-0.4-1.1-0.8-1.5-1.1c-2.1-1.8-4.2-3.5-6.3-5.3c-1.2-1-2.4,1.4-1.2,2.4
	c1.5,1.3,3.1,2.6,4.6,3.9c0.9,0.8,1.9,1.6,2.8,2.3c0.2,0.2,0.5,0.4,0.7,0.6c-0.5-0.5-0.3,2.4-0.3,3c-0.1,4-3,6.7-6,7.3
	c-0.3-6.9-5.9-11.2-11.7-11c-1.5,0.1-1.5,2.8,0,2.8c5.5-0.2,10.5,4.1,9.1,11.4c-1,5.7-6,6.9-10.2,6c0.2-2.9-0.8-5.8-2.9-8.2
	c-1.1-1.2-2.6,0.8-1.6,2c1.7,2,2.5,4.2,2.1,6.5c-0.1,0.2-0.2,0.5-0.2,0.7c0,0,0,0,0,0c-0.3,0.9-0.7,1.8-1.3,2.6
	c-0.1,0.1-0.1,0.2-0.2,0.4c-1.7,1.2-4.3,1.3-5.8,1.2c-3.3-0.3-5.5-3.4-5.7-7.3c-0.1-1.9-0.1-3.7,0-5.6c2.4,0.1,5.1,0,6.9-1.8
	c2-2.1,2.5-5.3,2.6-8.3c0-1.8-2.3-1.8-2.3,0c0,2.1-0.3,4.4-1.6,6c-1.2,1.6-3.7,1.5-5.6,1.4c0-0.3,0-0.7,0-1c0-5,0-10,0-14.9
	c2.6,0,5.2,0,7.8,0c1.5,0,1.5-2.8,0-2.8c-2.6,0-5.2,0-7.8,0c0-3.4,0-6.8,0-10.2c4.4,0.1,10.9,0.9,15.5-1.1c0,0.1,0.1,0.3,0.1,0.4
	c1.8,3.7,1.5,7.3-1.5,9.7c-1.2,1,0,3.3,1.2,2.3c4.1-3.3,4.7-8.5,2.3-13.5c0-0.1-0.1-0.1-0.1-0.2c1.9-1.5,3.2-3.9,3.3-7.6
	c0.1-1.8-2.2-1.8-2.3,0c-0.1,4.5-2.9,6.6-6.4,7.1c-3.9,0.6-8.1,0.2-12.1,0.1c0-6.6,0-13.1,0-19.7c0-3,0-6.1,0-9.1
	c1.8,0.1,3.6,0.4,5,1.9c1.5,1.6,2.3,3.9,2.2,6.3c0,1.8,2.3,1.8,2.3,0c0-2.9-0.9-5.6-2.5-7.8c-1.8-2.5-4.4-3.1-7-3.2
	c0-2.2,0-4.5,0-6.7c0-0.5,0-1,0-1.5c2.5,2.8,6,2.9,9.4,0.8c1.3-0.8,0.2-3.2-1.1-2.4c-3.1,2-6.1,1.5-8-2.3c0,0,0-0.1-0.1-0.1
	c0.1-0.9,0.3-1.8,0.5-2.7c1.9-6.9,9.5-5,13-1.2c0,0,0.1,0.1,0.1,0.1c0,4.9,0.1,9.8,0,14.6c-0.2,6.9,4.2,11.5,9.7,11.6
	c1.5,0,1.5-2.7,0-2.8c-4.7-0.1-7.4-3.8-7.4-9.3c0-4.9,0-9.7,0-14.6c3.4-1.1,7-0.9,9.1,3.1c0.8,1.5,1.2,3.4,1.4,5.2
	c-0.1,0.1-0.2,0.2-0.3,0.3c-1.9,2.1-3.8,4.1-5.6,6.2c-1.1,1.2,0.5,3.1,1.6,1.9c1.4-1.6,2.9-3.2,4.3-4.7c0.6-0.7,1.3-1.4,1.9-2.1
	c0,0,0,0,0,0c-0.3,0.4,0.7,0.3,1.1,0.3c0.9,0.1,1.8,0.4,2.6,0.8c3,1.7,3.1,6.8,2.3,10.1c-0.2,0.9,0.4,1.6,1.1,1.7
	c3.6,0.6,5.9,2.9,5.8,7.4c0,1.7-0.7,4.4-1,5.4c0,0.1,0,0.1-0.1,0.2c0,0,0,0-0.1,0c-5.7,1.4-9.1,8.4-7.6,15.2
	c0.4,1.7,2.7,1.2,2.3-0.5c-1.2-5.2,1.1-10.8,5.7-12c0.3-0.1,0.5-0.2,0.6-0.4c2.3,2.8,3.4,6.2,2,10.1c-0.6,1.7-1.6,3.2-2.7,4.4
	c-0.4,0.4-0.4,1.1-0.2,1.7C95.9,62.6,96,66.6,93.2,69.7z"/>
<path class="st0" d="M5.8,58.6C6,58,6,57.3,5.6,56.9c-1.1-1.2-2.1-2.8-2.7-4.4c-1.4-3.9-0.3-7.3,2-10.1c0.1,0.2,0.4,0.4,0.6,0.4
	c4.6,1.1,6.9,6.8,5.7,12c-0.4,1.7,1.9,2.2,2.3,0.5c1.6-6.7-1.9-13.7-7.6-15.2c0,0,0,0-0.1,0c0-0.1,0-0.1-0.1-0.2c-0.4-1-1-3.7-1-5.4
	c-0.1-4.5,2.2-6.8,5.8-7.4c0.7-0.1,1.3-0.8,1.1-1.7C10.9,22,11,17,14,15.3c0.8-0.5,1.7-0.8,2.6-0.8c0.4,0,1.4,0.1,1.1-0.3
	c0,0,0,0,0,0c0.6,0.7,1.3,1.4,1.9,2.1c1.4,1.6,2.9,3.2,4.3,4.7c1.1,1.2,2.7-0.7,1.6-1.9c-1.9-2.1-3.8-4.1-5.6-6.2
	c-0.1-0.1-0.2-0.2-0.3-0.3c0.1-1.8,0.6-3.7,1.4-5.2c2-4,5.6-4.1,9.1-3.1c0,4.9,0,9.7,0,14.6c0,5.5-2.7,9.2-7.4,9.3
	c-1.5,0-1.5,2.8,0,2.8c5.5-0.1,9.9-4.7,9.7-11.6c-0.1-4.9,0-9.8,0-14.6c0,0,0.1-0.1,0.1-0.1c3.5-3.8,11-5.7,13,1.2
	c0.2,0.9,0.4,1.8,0.5,2.7c0,0,0,0.1-0.1,0.1c-1.9,3.8-4.9,4.3-8,2.3c-1.3-0.8-2.4,1.6-1.1,2.4c3.4,2.2,6.9,2,9.4-0.8
	c0,0.5,0,1,0,1.5c0,2.2,0,4.5,0,6.7c-2.6,0.1-5.2,0.7-7,3.2c-1.6,2.2-2.6,4.8-2.5,7.8c0,1.8,2.3,1.8,2.3,0c0-2.3,0.8-4.7,2.2-6.3
	c1.5-1.5,3.2-1.9,5-1.9c0,3,0,6.1,0,9.1c0,6.6,0,13.1,0,19.7c-4,0.1-8.2,0.5-12.1-0.1c-3.4-0.5-6.2-2.6-6.4-7.1
	c-0.1-1.8-2.3-1.8-2.3,0c0.1,3.7,1.4,6.1,3.3,7.6c0,0.1-0.1,0.1-0.1,0.2c-2.4,5-1.9,10.2,2.3,13.5c1.2,1,2.5-1.4,1.2-2.3
	c-3.1-2.4-3.3-6.1-1.5-9.7c0.1-0.1,0.1-0.3,0.1-0.4c4.6,2.1,11.1,1.3,15.5,1.1c0,3.4,0,6.8,0,10.2c-2.6,0-5.2,0-7.8,0
	c-1.5,0-1.5,2.8,0,2.8c2.6,0,5.2,0,7.8,0c0,5,0,10,0,14.9c0,0.3,0,0.7,0,1c-1.9,0.1-4.4,0.1-5.6-1.4c-1.3-1.6-1.5-3.9-1.6-6
	c0-1.8-2.3-1.8-2.3,0c0,3,0.6,6.3,2.6,8.3c1.8,1.8,4.6,1.9,6.9,1.8c0,1.9,0,3.7,0,5.6c-0.2,3.8-2.4,7-5.7,7.3
	c-1.5,0.1-4.2,0-5.8-1.2c0-0.1-0.1-0.2-0.2-0.4c-0.6-0.9-1.1-1.7-1.3-2.6c0,0,0,0,0,0c0-0.3-0.1-0.5-0.2-0.7
	c-0.4-2.3,0.4-4.5,2.1-6.5c1.1-1.2-0.5-3.3-1.6-2c-2.1,2.4-3.1,5.3-2.9,8.2c-4.2,1-9.2-0.2-10.2-6c-1.3-7.3,3.6-11.6,9.1-11.4
	c1.5,0.1,1.5-2.7,0-2.8c-5.8-0.2-11.4,4.1-11.7,11c-3.1-0.6-5.9-3.3-6-7.3c0-0.6,0.3-3.4-0.3-3c0.2-0.2,0.5-0.4,0.7-0.6
	c0.9-0.8,1.9-1.6,2.8-2.3c1.5-1.3,3.1-2.6,4.6-3.9c1.2-1,0.1-3.4-1.2-2.4c-2.1,1.8-4.2,3.5-6.3,5.3c-0.4,0.3-1,0.7-1.5,1.1
	c-1.3-0.5-2.5-1.3-3.5-2.4C4.2,66.6,4.3,62.6,5.8,58.6z"/>
</svg>
