<?xml version="1.0" encoding="utf-8"?>
<!-- Generator: Adobe Illustrator 24.1.2, SVG Export Plug-In . SVG Version: 6.00 Build 0)  -->
<svg version="1.1" id="Layer_1" xmlns="http://www.w3.org/2000/svg" xmlns:xlink="http://www.w3.org/1999/xlink" x="0px" y="0px"
	 viewBox="0 0 100 100" style="enable-background:new 0 0 100 100;" xml:space="preserve">
<style type="text/css">
	.st0{fill:#474F59;}
</style>
<g>
	<path class="st0" d="M75.6,49.1c-12.9,0-23.4,10.5-23.4,23.4c0,12.9,10.5,23.4,23.4,23.4C88.5,95.9,99,85.4,99,72.5
		C99,59.6,88.5,49.1,75.6,49.1z M75.6,91.3c-10.4,0-18.8-8.4-18.8-18.8c0-10.4,8.4-18.8,18.8-18.8c10.4,0,18.8,8.4,18.8,18.8
		C94.4,82.8,86,91.3,75.6,91.3z"/>
	<path class="st0" d="M41.7,4.3L41.7,4.3L41.7,4.3C41.6,4.3,41.6,4.3,41.7,4.3c-0.1,0-0.1,0-0.1,0c-14.2,0-26.7,7.3-33.9,18.4
		c-0.1,0.1-0.2,0.3-0.3,0.4C3.3,29.4,1,36.8,1,44.8c0,8,2.3,15.4,6.3,21.7c0.1,0.3,0.2,0.5,0.4,0.7c7.3,11,19.7,18.2,33.8,18.2
		l0.3,0c0.1,0,0.2,0,0.3-0.1c0.1,0,0.1,0,0.2,0c0,0,0,0,0,0c4.3-0.1,8.5-0.9,12.4-2.3c-0.5-1-1-2.1-1.3-3.2c-1.5,0.5-3.1,1-4.8,1.3
		c1.4-1.2,2.8-2.4,4.1-3.8c-0.3-1.5-0.5-3-0.5-4.6c-2.6,3-5.6,5.8-9,8.1V67.6h9.5c0.2-1.2,0.6-2.3,1-3.4H43.3V46.5h19.1
		c-0.1,2.5-0.4,5-0.9,7.4c1.2-0.9,2.5-1.7,3.9-2.4c0.2-1.6,0.4-3.3,0.4-5h12.8c0,0.9-0.1,1.8-0.2,2.7c1.2,0.1,2.3,0.4,3.4,0.7
		c0.2-1.7,0.3-3.4,0.3-5.1C82.1,22.5,63.9,4.3,41.7,4.3z M35.2,8.2c-4.8,3.8-8.8,8.5-11.8,13.8H12.2C17.8,14.9,25.9,9.8,35.2,8.2z
		 M9.9,25.5h11.8c-2.5,5.5-4,11.4-4.2,17.6h-13C4.8,36.7,6.7,30.7,9.9,25.5z M4.5,46.5h13c0.2,6.1,1.7,12.1,4.3,17.6H9.9
		C6.7,59,4.8,53,4.5,46.5z M12.3,67.6h11.3c3,5.2,7.1,10,12,13.8C26.1,79.9,17.9,74.8,12.3,67.6z M39.8,80.3
		c-5-3.4-9.1-7.8-12.2-12.7h12.2V80.3z M39.8,64.2H25.6c-2.8-5.5-4.5-11.5-4.7-17.6h18.9V64.2z M39.8,43.1H20.9
		c0.3-6.2,1.9-12.2,4.6-17.6h14.3V43.1z M39.8,22.1H27.5c3.2-5.1,7.3-9.5,12.4-12.9V22.1z M43.3,9c5.1,3.4,9.3,7.9,12.5,13H43.3V9z
		 M43.3,43.1V25.5h14.4c2.7,5.4,4.3,11.4,4.6,17.6H43.3z M78.6,43.1H65.7C65.5,36.9,64,31,61.5,25.5h11.7
		C76.3,30.7,78.3,36.7,78.6,43.1z M59.8,22.1c-3-5.3-6.9-10-11.7-13.8c9.2,1.6,17.2,6.7,22.8,13.8H59.8z"/>
	<path class="st0" d="M80.7,71.5c-0.6-0.3-1.7-0.7-3-1.1v-6.8c0.4,0.1,0.8,0.2,1.2,0.3c0.8,0.3,1.4,0.4,1.8,0.4c0.5,0,1-0.2,1.3-0.5
		c0.3-0.4,0.5-0.8,0.5-1.4c0-0.5-0.2-0.8-0.5-1.1c-0.8-0.8-2.3-1.3-4.3-1.6v-1.5c0-1.2-0.9-2.1-2.1-2.1c-1.2,0-2.1,0.9-2.1,2.1v1.5
		c-1.9,0.4-3.4,1.1-4.5,2.2c-1.5,1.4-2.2,3.2-2.2,5.3c0,2.1,0.8,3.6,2.5,4.7c0.7,0.4,1.5,0.8,2.5,1.2c0.3,0.1,0.9,0.3,1.8,0.5v8
		c-0.8-0.2-1.6-0.4-2.4-0.6c-1.2-0.4-2.1-0.6-2.7-0.6c-0.5,0-1,0.2-1.3,0.5c-0.4,0.4-0.5,0.8-0.5,1.4c0,0.6,0.2,1,0.6,1.4
		c1.1,1,3.2,1.6,6.2,1.8v1.4c0,1.2,0.9,2.1,2.1,2.1c1.2,0,2.1-0.9,2.1-2.1v-1.6c1.9-0.4,3.4-1.1,4.5-2.1c1.6-1.4,2.4-3.3,2.4-5.5
		c0-1.4-0.2-2.5-0.8-3.3C83.1,73.1,82.1,72.2,80.7,71.5z M73.5,68.9c-1.3-0.7-2-1.5-2-2.4c0-1.2,0.7-2.1,2-2.8V68.9z M77.7,81.1
		v-6.1c1.4,0.8,2.2,1.7,2.2,2.8C79.9,79.2,79.2,80.3,77.7,81.1z"/>
</g>
</svg>
