<?xml version="1.0" encoding="utf-8"?>
<!-- Generator: Adobe Illustrator 24.1.2, SVG Export Plug-In . SVG Version: 6.00 Build 0)  -->
<svg version="1.1" id="Layer_1" xmlns="http://www.w3.org/2000/svg" xmlns:xlink="http://www.w3.org/1999/xlink" x="0px" y="0px"
	 viewBox="0 0 100 100" style="enable-background:new 0 0 100 100;" xml:space="preserve">
<style type="text/css">
	.st0{fill:#474F59;}
</style>
<path class="st0" d="M87.6,14.8H13.4C7.7,14.8,3,19.5,3,25.3V74c0,5.8,4.7,10.4,10.4,10.4h74.1C93.3,84.4,98,79.8,98,74V25.3
	C98,19.5,93.3,14.8,87.6,14.8z M94.1,74c0,3.6-3,6.6-6.6,6.6H13.4c-3.6,0-6.6-2.9-6.6-6.6V50.9c1.2,0.8,2.6,1.3,4.1,1.3
	c1.5,0,3-0.5,4.2-1.3V74c0,1.1,0.9,1.9,1.9,1.9h66.8c1.1,0,1.9-0.9,1.9-1.9V25.3c0-1.1-0.9-1.9-1.9-1.9H17.1c-1.1,0-1.9,0.9-1.9,1.9
	v13.3c-1.2-0.8-2.6-1.3-4.2-1.3c-1.5,0-3,0.5-4.1,1.3V25.3c0-3.6,3-6.6,6.6-6.6h74.1c3.6,0,6.6,3,6.6,6.6V74z M7.5,44.7
	c0-2,1.6-3.5,3.5-3.5c2,0,3.6,1.6,3.6,3.5c0,2-1.6,3.6-3.6,3.6C9.1,48.3,7.5,46.7,7.5,44.7z M59.8,29.8c-3.5,0-6.9,1.5-9.3,4
	c-2.4-2.5-5.7-4-9.3-4c-7,0-12.7,5.7-12.7,12.7c0,2.6,0.7,5.1,1.9,7.5H19V27.2H82V50H70.7c1.2-2.4,1.9-4.9,1.9-7.5
	C72.5,35.5,66.8,29.8,59.8,29.8z M62.1,50l-3-5.5c-0.4-0.6-1-1-1.8-1c-0.7,0-1.4,0.5-1.7,1.1l-4.5,9.8L45.8,40
	c-0.3-0.7-1-1.2-1.7-1.3c-0.8,0-1.5,0.4-1.8,1.1L37.7,50h-2.9c-1.4-2.4-2.4-5-2.4-7.5c0-4.9,4-8.9,8.9-8.9c3.1,0,6,1.7,7.6,4.4
	c0.3,0.6,1,1,1.7,1c0.7,0,1.3-0.4,1.7-1c1.6-2.7,4.5-4.4,7.6-4.4c4.9,0,8.9,4,8.9,8.9c0,2.5-0.9,5.1-2.4,7.5H62.1z M63.5,53.9
	c-4.5,5.4-10.6,9.7-13,11.3c-2.4-1.6-8.5-5.9-13-11.3h1.4c0.8,0,1.4-0.4,1.8-1.1l3.2-7l5.4,14.4c0.3,0.7,1,1.2,1.7,1.3
	c0,0,0,0,0.1,0c0.8,0,1.4-0.4,1.8-1.1l4.8-10.5l1.7,3.1c0.3,0.6,1,1,1.7,1H63.5z M32.7,53.9c6,8.5,16.2,14.9,16.8,15.3
	c0.3,0.2,0.7,0.3,1,0.3c0.4,0,0.7-0.1,1-0.3c0.6-0.4,10.9-6.7,16.8-15.3H82v18.2H19V53.9H32.7z"/>
</svg>
