<?xml version="1.0" encoding="utf-8"?>
<!-- Generator: Adobe Illustrator 24.1.2, SVG Export Plug-In . SVG Version: 6.00 Build 0)  -->
<svg version="1.1" id="Layer_1" xmlns="http://www.w3.org/2000/svg" xmlns:xlink="http://www.w3.org/1999/xlink" x="0px" y="0px"
	 viewBox="0 0 100 100" style="enable-background:new 0 0 100 100;" xml:space="preserve">
<style type="text/css">
	.st0{fill:#474F59;}
</style>
<g>
	<path class="st0" d="M93.6,31.1L77.7,19.3c-0.6-0.5-1.5-0.5-2.1,0L59.7,31.1C59.3,31.4,59,32,59,32.5v61.7c0,1,0.8,1.8,1.8,1.8
		h31.8c1,0,1.8-0.8,1.8-1.8V32.5C94.3,32,94.1,31.4,93.6,31.1z M62.5,92.5V79h21.1c1,0,1.8-0.8,1.8-1.8c0-1-0.8-1.8-1.8-1.8H62.5
		V62.6h21.1c1,0,1.8-0.8,1.8-1.8c0-1-0.8-1.8-1.8-1.8H62.5V46.2h21.1c1,0,1.8-0.8,1.8-1.8c0-1-0.8-1.8-1.8-1.8H62.5v-9.3l14.1-10.5
		l14.2,10.5v1.1H69.7c-1,0-1.8,0.8-1.8,1.8c0,1,0.8,1.8,1.8,1.8h21.1v12.9H69.7c-1,0-1.8,0.8-1.8,1.8c0,1,0.8,1.8,1.8,1.8h21.1v12.9
		H69.7c-1,0-1.8,0.8-1.8,1.8c0,1,0.8,1.8,1.8,1.8h21.1v12.9H69.7c-1,0-1.8,0.8-1.8,1.8c0,1,0.8,1.8,1.8,1.8h21.1v5.3H62.5z"/>
	<path class="st0" d="M42,38.9L10.1,20.3c-0.5-0.3-1.2-0.3-1.8,0c-0.5,0.3-0.9,0.9-0.9,1.5v19.6v10.5V52v10.5v0.1v10.5v10.5v10.5
		v0.1c0,1,0.8,1.8,1.8,1.8h19.9h11.6h0.3c1,0,1.8-0.8,1.8-1.8V40.4C42.8,39.8,42.5,39.2,42,38.9z M31,60.7v-7.1h8.1v7.1H31z
		 M31,64.3h8.1v7.1H31V64.3z M31,50.1V43h8.1v7.1H31z M31,74.9h8.1v7.1H31V74.9z M36.1,39.5h-6.9c-1,0-1.8,0.8-1.8,1.8v10.6
		c0,0,0,0,0,0c0,0,0,0,0,0v10.6c0,0,0,0,0,0c0,0,0,0,0,0v10.6v10.6v8.8h-4.8v-8.9V73.1V62.6c0,0,0,0,0,0c0,0,0,0,0,0V52c0,0,0,0,0,0
		c0,0,0,0,0,0V41.4c0-1-0.8-1.8-1.8-1.8H11V24.8L36.1,39.5z M11,43.2h8.1v7H11V43.2z M11,85.4h8.1v7H11V85.4z M11,74.8h8.1v7H11
		V74.8z M19.1,60.7H11v-7h8.1V60.7z M11,64.3h8.1v7H11V64.3z M31,92.5v-7.1h8.1v7.1H31z"/>
	<path class="st0" d="M54.2,76.3h-6.6c-1,0-1.8-0.8-1.8-1.8c0-1,0.8-1.8,1.8-1.8h6.6c1,0,1.8,0.8,1.8,1.8
		C56,75.5,55.2,76.3,54.2,76.3z"/>
	<path class="st0" d="M54.2,68.1h-6.6c-1,0-1.8-0.8-1.8-1.8c0-1,0.8-1.8,1.8-1.8h6.6c1,0,1.8,0.8,1.8,1.8
		C56,67.3,55.2,68.1,54.2,68.1z"/>
	<path class="st0" d="M54.2,59.9h-6.6c-1,0-1.8-0.8-1.8-1.8c0-1,0.8-1.8,1.8-1.8h6.6c1,0,1.8,0.8,1.8,1.8
		C56,59.1,55.2,59.9,54.2,59.9z"/>
	<path class="st0" d="M54.2,51.7h-6.6c-1,0-1.8-0.8-1.8-1.8c0-1,0.8-1.8,1.8-1.8h6.6c1,0,1.8,0.8,1.8,1.8
		C56,50.9,55.2,51.7,54.2,51.7z"/>
	<path class="st0" d="M54.2,43.5h-6.6c-1,0-1.8-0.8-1.8-1.8c0-1,0.8-1.8,1.8-1.8h6.6c1,0,1.8,0.8,1.8,1.8
		C56,42.7,55.2,43.5,54.2,43.5z"/>
	<path class="st0" d="M54.2,35.3h-6.6c-1,0-1.8-0.8-1.8-1.8c0-1,0.8-1.8,1.8-1.8h6.6c1,0,1.8,0.8,1.8,1.8
		C56,34.6,55.2,35.3,54.2,35.3z"/>
	<path class="st0" d="M54.2,27.2h-6.6c-1,0-1.8-0.8-1.8-1.8c0-1,0.8-1.8,1.8-1.8h6.6c1,0,1.8,0.8,1.8,1.8
		C56,26.4,55.2,27.2,54.2,27.2z"/>
	<path class="st0" d="M54.2,19h-6.6c-1,0-1.8-0.8-1.8-1.8c0-1,0.8-1.8,1.8-1.8h6.6c1,0,1.8,0.8,1.8,1.8C56,18.2,55.2,19,54.2,19z"/>
	<rect x="42.8" y="79.6" class="st0" width="16.2" height="3.5"/>
	<path class="st0" d="M43.4,33.6c0-1-0.8-1.8-1.8-1.8h-4.9v-4.7h4.9c1,0,1.8-0.8,1.8-1.8c0-1-0.8-1.8-1.8-1.8h-4.9v-4c0,0,0,0,0-0.1
		c0-0.2,0-0.4,0-0.6h4.8c1,0,1.8-0.8,1.8-1.8c0-1-0.8-1.8-1.8-1.8h-4.2c1.8-5.7,7.2-9.9,13.5-9.9c6.3,0,11.7,4.2,13.5,9.9h-4.2
		c-1,0-1.8,0.8-1.8,1.8c0,1,0.8,1.8,1.8,1.8H65c0,0.2,0,0.4,0,0.6c0,0,0,0,0,0.1v4h-4.9c-1,0-1.8,0.8-1.8,1.8c0,1,0.8,1.8,1.8,1.8
		H65l3.5-2.6v-4.8c0,0,0,0,0-0.1c0-0.8-0.1-1.6-0.2-2.4c0,0,0,0,0,0c0-0.2,0-0.3-0.1-0.5C66.9,8.4,59.7,2,50.9,2
		c-8.7,0-16,6.4-17.4,14.7c0,0.1-0.1,0.3-0.1,0.5c0,0,0,0,0,0c-0.1,0.8-0.2,1.6-0.2,2.4c0,0,0,0,0,0.1v5.7c0,0,0,0,0,0v0v8.2v0
		c0,0,0,0,0,0v0.2l3.5,2v-0.5h4.9C42.6,35.3,43.4,34.6,43.4,33.6z"/>
</g>
</svg>
